<svg id="Layer_1" data-name="Layer 1" xmlns="http://www.w3.org/2000/svg" viewBox="0 0 10 10"><defs><style>.cls-1{fill:#000102;fill-rule:evenodd;}</style></defs><title>icon-twitter</title><g id="Twitter"><path id="Path_2" data-name="Path 2" class="cls-1" d="M3.17,9.11A5.78,5.78,0,0,0,9,3.38V3a4.38,4.38,0,0,0,1-1.06,4.36,4.36,0,0,1-1.17.34,2.12,2.12,0,0,0,.89-1.11,5.24,5.24,0,0,1-1.28.5A2,2,0,0,0,6.94,1,2.09,2.09,0,0,0,4.89,3.06a1.09,1.09,0,0,0,.05.44A5.74,5.74,0,0,1,.72,1.33,2.18,2.18,0,0,0,.44,2.39a2.24,2.24,0,0,0,.89,1.72,1.84,1.84,0,0,1-.94-.28h0a2,2,0,0,0,1.67,2,1.78,1.78,0,0,1-.56.06.89.89,0,0,1-.39-.06,2.1,2.1,0,0,0,2,1.45A4.25,4.25,0,0,1,.5,8.17,1.67,1.67,0,0,1,0,8.11a5.22,5.22,0,0,0,3.17,1"/></g></svg>