<svg id="Layer_1" data-name="Layer 1" xmlns="http://www.w3.org/2000/svg" viewBox="0 0 10 10"><defs><style>.cls-1{fill:#000102;fill-rule:evenodd;}</style></defs><title>icon-insta</title><g id="Instagram"><path id="Path_3" data-name="Path 3" class="cls-1" d="M5,.9A14.85,14.85,0,0,1,7,1a2.52,2.52,0,0,1,.94.17,2,2,0,0,1,.94.94A2.74,2.74,0,0,1,9.05,3c0,.5,0,.67,0,2a14.85,14.85,0,0,1,0,2,2.74,2.74,0,0,1-.17.94,2,2,0,0,1-.94.94A2.74,2.74,0,0,1,7,9.05c-.5,0-.67,0-2,0a14.85,14.85,0,0,1-2,0,2.74,2.74,0,0,1-.94-.17,2,2,0,0,1-.94-.94A2.74,2.74,0,0,1,1,7c0-.5,0-.67,0-2A14.85,14.85,0,0,1,1,3a2.74,2.74,0,0,1,.17-.94,2.12,2.12,0,0,1,.39-.55.9.9,0,0,1,.55-.39A2.52,2.52,0,0,1,3,1a14.85,14.85,0,0,1,2,0M5,0A15.6,15.6,0,0,0,3,.07,3.38,3.38,0,0,0,1.73.29,2.28,2.28,0,0,0,.29,1.73,2.44,2.44,0,0,0,.07,3,15.6,15.6,0,0,0,0,5,15.6,15.6,0,0,0,.07,7.05,3.38,3.38,0,0,0,.29,8.27,2.28,2.28,0,0,0,1.73,9.71,3.18,3.18,0,0,0,3,9.93,15.6,15.6,0,0,0,5,10a15.6,15.6,0,0,0,2.05-.06,3.38,3.38,0,0,0,1.22-.22A2.29,2.29,0,0,0,9.71,8.27a3.38,3.38,0,0,0,.22-1.22c0-.55.06-.72.06-2a15.6,15.6,0,0,0-.06-2,3.38,3.38,0,0,0-.22-1.22A2.28,2.28,0,0,0,8.27.29,3.38,3.38,0,0,0,7.05.07,15.6,15.6,0,0,0,5,0M5,2.45A2.51,2.51,0,0,0,2.45,4.92V5A2.55,2.55,0,1,0,5,2.45M5,6.66a1.62,1.62,0,0,1-1.66-1.6V5a1.62,1.62,0,0,1,1.6-1.66H5a1.62,1.62,0,0,1,1.66,1.6V5a1.62,1.62,0,0,1-1.6,1.66H5M7.66,1.73a.61.61,0,1,0,.61.61.61.61,0,0,0-.61-.61"/></g></svg>