<svg id="Layer_1" data-name="Layer 1" xmlns="http://www.w3.org/2000/svg" xmlns:xlink="http://www.w3.org/1999/xlink" viewBox="0 0 215.23 53.87"><defs><style>.cls-1,.cls-5{fill:none;}.cls-2{fill:#ffd300;}.cls-3{clip-path:url(#clip-path);}.cls-4{fill:#fff;}.cls-5{stroke:#fff;stroke-width:0.4px;}.cls-6{clip-path:url(#clip-path-45);}.cls-7{clip-path:url(#clip-path-78);}.cls-8{fill:#ec1a3b;}</style><clipPath id="clip-path"><polygon class="cls-1" points="29.09 0.66 24.77 0.66 24.12 0.15 23.25 0.25 22.74 0.91 18.55 1.94 17.79 1.6 16.98 1.91 16.64 2.67 12.81 4.67 11.99 4.52 11.28 5.02 11.13 5.84 7.89 8.7 7.07 8.75 6.49 9.4 6.54 10.23 4.08 13.79 3.29 14.03 2.88 14.8 3.13 15.6 1.6 19.64 0.89 20.07 0.68 20.91 1.11 21.63 0.59 25.91 0 26.5 0 27.37 0.59 27.96 1.11 32.25 0.68 32.96 0.89 33.8 1.6 34.23 3.13 38.27 2.89 39.07 3.29 39.84 4.09 40.09 6.54 43.64 6.49 44.47 7.07 45.12 7.89 45.17 11.13 48.03 11.28 48.85 12 49.35 12.81 49.2 16.64 51.2 16.98 51.96 17.79 52.27 18.55 51.93 22.75 52.96 23.26 53.62 24.12 53.72 24.78 53.21 29.1 53.21 29.75 53.72 30.62 53.62 31.13 52.96 35.32 51.93 36.08 52.27 36.89 51.96 37.23 51.2 41.06 49.19 41.88 49.35 42.59 48.85 42.74 48.03 45.97 45.17 46.8 45.12 47.38 44.47 47.33 43.64 49.78 40.08 50.58 39.84 50.98 39.06 50.73 38.27 52.27 34.23 52.98 33.8 53.19 32.95 52.76 32.24 53.28 27.96 53.86 27.37 53.86 26.5 53.28 25.91 52.76 21.62 53.19 20.91 52.98 20.07 52.27 19.64 50.73 15.59 50.98 14.8 50.57 14.03 49.78 13.78 47.33 10.23 47.38 9.4 46.8 8.75 45.97 8.7 42.74 5.83 42.59 5.01 41.87 4.52 41.05 4.67 37.23 2.67 36.89 1.91 36.08 1.6 35.32 1.94 31.12 0.91 30.61 0.25 29.75 0.15 29.09 0.66"/></clipPath><clipPath id="clip-path-45"><path class="cls-1" d="M0,26.93A26.94,26.94,0,1,0,26.93,0,26.94,26.94,0,0,0,0,26.93"/></clipPath><clipPath id="clip-path-78"><path class="cls-1" d="M30.61,53.62a26.69,26.69,0,0,0,5.47-1.35L29.51,37.39Z"/></clipPath></defs><path d="M70.79,20.68h4.88v.73h-.14c-1.5,0-1.73.66-1.73,1.56v4.68c0,4.2-3,5-5.28,5-3.39,0-5.53-1.47-5.53-4.35v-5.6c0-.94-.26-1.28-1.32-1.28h-.32v-.73h5.89v.73h-.32a1.16,1.16,0,0,0-1.33,1.28v5.6c0,2.3,1.69,3.09,3.4,3.09,2.46,0,3.69-1.39,3.69-3.46V23.35c0-1.34-.38-1.94-1.55-1.94h-.34Z"/><path d="M78.65,30.29c0,.69.32,1,.87,1S80.4,31,81,30.34l.26.53a3.3,3.3,0,0,1-2.73,1.71c-1.27,0-2.13-.72-2.13-2.33V25.74h-1v-.49a5.66,5.66,0,0,0,2.75-2.9h.54V24.7h2.46l-.28,1H78.65Z"/><path d="M87.3,32.37H82.07v-.6h.13c.78,0,1.06-.33,1.06-1.31V27.39c0-.84-.11-1-.68-1.26l-.51-.21v-.46l3.09-1.17h.39v2.1h0c.7-1.35,1-1.89,1.64-1.89a1.32,1.32,0,0,1,.37.05l1.49.55a6.79,6.79,0,0,1-.9,2,6.9,6.9,0,0,0-1.53-.47c-.37,0-.69.27-1.11.85v3c0,.91.29,1.26,1.27,1.26h.48Z"/><path d="M97.27,30.19a5.18,5.18,0,0,1-4,2.39c-2,0-3.44-1.58-3.44-3.85a4,4,0,0,1,4-4.23,3.22,3.22,0,0,1,2.37.9c1.11,1.11.58,2.16,1.24,2.5v.54H92.23c.15,1.57,1.2,2.75,2.32,2.75.69,0,1.37-.39,2.29-1.35Zm-2.42-2.48c0-1.45-.53-2.33-1.34-2.33s-1.46,1-1.34,2.33Z"/><path d="M106.35,30.57a4.37,4.37,0,0,1-3.83,2,3.71,3.71,0,0,1-4-3.72c0-2.47,2.12-4.36,4.87-4.36,1.62,0,2.84.67,2.84,1.59a.9.9,0,0,1-1,.95c-1.32,0-1.6-1.68-2.69-1.68-.94,0-1.58,1.15-1.58,2.84,0,2,1,3.4,2.35,3.4a3.18,3.18,0,0,0,2.41-1.33Z"/><path d="M110.43,30.48c0,1.18.32,1.29,1,1.29h.19v.6h-4.76v-.6h.27c1,0,1-.37,1-1.37V22.18c0-.54-.09-.67-.6-.84l-.55-.19v-.44l3-.92h.45v6.13a7.12,7.12,0,0,1,3.39-1.43c1.38,0,2.05,1.11,2.05,3.33v2.49c0,1.11.13,1.46.85,1.46h.18v.6h-4.43v-.6h.15c.79,0,1-.3,1-1.37V27.56c0-1-.47-1.65-1.23-1.65a4,4,0,0,0-1.92.71v3.86Z"/><path d="M121,30.29c0,.69.32,1,.87,1s.88-.28,1.43-.94l.26.53a3.3,3.3,0,0,1-2.73,1.71c-1.27,0-2.12-.72-2.12-2.33V25.74h-1v-.49a5.66,5.66,0,0,0,2.75-2.9H121V24.7h2.46l-.27,1H121Z"/><polygon class="cls-2" points="22.74 0.91 23.25 0.25 24.12 0.15 24.77 0.66 29.09 0.66 29.75 0.15 30.61 0.25 31.12 0.91 35.32 1.94 36.08 1.6 36.89 1.91 37.23 2.67 41.05 4.67 41.87 4.52 42.59 5.01 42.74 5.83 45.97 8.7 46.8 8.75 47.38 9.4 47.33 10.23 49.78 13.78 50.57 14.03 50.98 14.8 50.73 15.59 52.27 19.64 52.98 20.07 53.19 20.91 52.76 21.62 53.28 25.91 53.86 26.5 53.86 27.37 53.28 27.96 52.76 32.24 53.19 32.95 52.98 33.8 52.27 34.23 50.74 38.27 50.98 39.06 50.58 39.84 49.78 40.08 47.33 43.64 47.38 44.47 46.8 45.12 45.97 45.17 42.74 48.03 42.59 48.85 41.88 49.35 41.06 49.19 37.23 51.2 36.89 51.96 36.08 52.27 35.32 51.93 31.13 52.96 30.62 53.62 29.75 53.72 29.1 53.21 24.78 53.21 24.12 53.72 23.26 53.62 22.75 52.96 18.55 51.93 17.79 52.27 16.98 51.96 16.64 51.2 12.81 49.2 12 49.35 11.28 48.85 11.13 48.03 7.89 45.17 7.07 45.12 6.49 44.47 6.54 43.64 4.09 40.09 3.29 39.84 2.89 39.07 3.13 38.27 1.6 34.23 0.89 33.8 0.68 32.96 1.11 32.25 0.59 27.96 0 27.37 0 26.5 0.59 25.91 1.11 21.63 0.68 20.91 0.89 20.07 1.6 19.64 3.13 15.6 2.88 14.8 3.29 14.03 4.08 13.79 6.54 10.23 6.49 9.4 7.07 8.75 7.89 8.7 11.13 5.84 11.28 5.02 11.99 4.52 12.81 4.67 16.64 2.67 16.98 1.91 17.79 1.6 18.55 1.94 22.74 0.91"/><g class="cls-3"><path class="cls-4" d="M31.58,3.45a3.51,3.51,0,0,0,.83.38c.3.07.64.09.72-.26s-.35-.49-.75-.73a1.06,1.06,0,0,1-.62-1.3,1.39,1.39,0,0,1,1.81-.8,3.35,3.35,0,0,1,1.13.53l-.44.63a2.63,2.63,0,0,0-.75-.35c-.47-.12-.69,0-.74.25s0,.3.45.5c.9.45,1.07.9.94,1.43-.23.92-1,1.09-1.89.89a3.58,3.58,0,0,1-1.11-.5Z"/></g><g class="cls-3"><path class="cls-5" d="M31.58,3.45a3.51,3.51,0,0,0,.83.38c.3.07.64.09.72-.26s-.35-.49-.75-.73a1.06,1.06,0,0,1-.62-1.3,1.39,1.39,0,0,1,1.81-.8,3.35,3.35,0,0,1,1.13.53l-.44.63a2.63,2.63,0,0,0-.75-.35c-.47-.12-.69,0-.74.25s0,.3.45.5c.9.45,1.07.9.94,1.43-.23.92-1,1.09-1.89.89a3.58,3.58,0,0,1-1.11-.5Z"/></g><g class="cls-3"><path class="cls-4" d="M39.51,3a2,2,0,0,1,.89,2.77,2,2,0,0,1-2.79.84,2,2,0,0,1-.9-2.77A2,2,0,0,1,39.51,3M38,5.89a1.06,1.06,0,0,0,1.5-.61,1.06,1.06,0,1,0-1.85-1A1.06,1.06,0,0,0,38,5.89"/></g><g class="cls-3"><path class="cls-5" d="M39.51,3a2,2,0,0,1,.89,2.77,2,2,0,0,1-2.79.84,2,2,0,0,1-.9-2.77A2,2,0,0,1,39.51,3ZM38,5.89a1.06,1.06,0,0,0,1.5-.61,1.06,1.06,0,1,0-1.85-1A1.06,1.06,0,0,0,38,5.89Z"/></g><g class="cls-3"><path class="cls-4" d="M44,5.87,41.46,9a20.17,20.17,0,0,1,1.88,1.7L44,10c-.39-.39-.8-.77-1.22-1.14l2-2.35"/></g><g class="cls-3"><path class="cls-5" d="M44,5.87,41.46,9a20.17,20.17,0,0,1,1.88,1.7L44,10c-.39-.39-.8-.77-1.22-1.14l2-2.35"/></g><g class="cls-3"><path class="cls-4" d="M52.45,17.83,48.7,19.16c-.1-.28-.22-.57-.33-.85l3.7-1.48"/></g><g class="cls-3"><path class="cls-5" d="M52.45,17.83,48.7,19.16c-.1-.28-.22-.57-.33-.85l3.7-1.48"/></g><g class="cls-3"><path class="cls-4" d="M53.93,24.7l-3.07-.62h0l2.84-1.29-.18-1-3.71,1.93c0,.37.09.72.13,1.08l4.05,1"/></g><g class="cls-3"><path class="cls-5" d="M53.93,24.7l-3.07-.62h0l2.84-1.29-.18-1-3.71,1.93c0,.37.09.72.13,1.08l4.05,1"/></g><g class="cls-3"><path class="cls-4" d="M50.8,28.72a4,4,0,0,0-.27.87c0,.31,0,.64.35.69s.44-.4.62-.84a1.08,1.08,0,0,1,1.22-.77c.82.1,1.11,1,1,1.7a3.55,3.55,0,0,1-.39,1.19l-.68-.37a3,3,0,0,0,.26-.79c0-.47-.1-.67-.34-.7s-.3.08-.45.51c-.34.95-.76,1.17-1.3,1.11-.94-.12-1.21-.92-1.11-1.77a3.64,3.64,0,0,1,.36-1.16Z"/></g><g class="cls-3"><path class="cls-5" d="M50.8,28.72a4,4,0,0,0-.27.87c0,.31,0,.64.35.69s.44-.4.62-.84a1.08,1.08,0,0,1,1.22-.77c.82.1,1.11,1,1,1.7a3.55,3.55,0,0,1-.39,1.19l-.68-.37a3,3,0,0,0,.26-.79c0-.47-.1-.67-.34-.7s-.3.08-.45.51c-.34.95-.76,1.17-1.3,1.11-.94-.12-1.21-.92-1.11-1.77a3.64,3.64,0,0,1,.36-1.16Z"/></g><g class="cls-3"><path class="cls-4" d="M51.67,38l-.92-.41c.13-.3.26-.6.38-.91l-2.76-1.11q.18-.44.33-.87l2.8,1c.11-.3.22-.61.31-.92l.95.3"/></g><g class="cls-3"><path class="cls-5" d="M51.67,38l-.92-.41c.13-.3.26-.6.38-.91l-2.76-1.11q.18-.44.33-.87l2.8,1c.11-.3.22-.61.31-.92l.95.3"/></g><g class="cls-3"><path class="cls-4" d="M48.91,42.77l-3.23-2.34c.18-.24.36-.51.52-.76l3.32,2.21"/></g><g class="cls-3"><path class="cls-5" d="M48.91,42.77l-3.23-2.34c.18-.24.36-.51.52-.76l3.32,2.21"/></g><g class="cls-3"><path class="cls-4" d="M43.69,48.21l-.62-.78c.26-.2.51-.41.76-.63l-1.92-2.27c.23-.19.46-.41.69-.61l2,2.2.7-.67.7.71"/></g><g class="cls-3"><path class="cls-5" d="M43.69,48.21l-.62-.78c.26-.2.51-.41.76-.63l-1.92-2.27c.23-.19.46-.41.69-.61l2,2.2.7-.67.7.71"/></g><g class="cls-3"><path class="cls-4" d="M39,51.17,37.26,47.6c.27-.14.55-.28.81-.43L40,50.67"/></g><g class="cls-3"><path class="cls-5" d="M39,51.17,37.26,47.6c.27-.14.55-.28.81-.43L40,50.67"/></g><g class="cls-3"><path class="cls-4" d="M31.46,53.64l-.69-3.92a22.65,22.65,0,0,0,2.31-.51l.3,1q.61-.18,1.23-.39l.21-.77.59,1.34-.78,2.51Z"/></g><g class="cls-3"><path class="cls-5" d="M31.46,53.64l-.69-3.92a22.65,22.65,0,0,0,2.31-.51l.3,1q.61-.18,1.23-.39l.21-.77.59,1.34-.78,2.51Z"/></g><g class="cls-3"><path class="cls-4" d="M20,53.11l1-3.85c.3.08.61.15.9.21L21,53.37"/></g><g class="cls-3"><path class="cls-5" d="M20,53.11l1-3.85c.3.08.61.15.9.21L21,53.37"/></g><g class="cls-3"><path class="cls-4" d="M15.45,51.47l1.7-3.6a22.72,22.72,0,0,1-2.23-1.2l-.45.73c.48.29,1,.56,1.46.82L14.49,51"/></g><g class="cls-3"><path class="cls-5" d="M15.45,51.47l1.7-3.6a22.72,22.72,0,0,1-2.23-1.2l-.45.73c.48.29,1,.56,1.46.82L14.49,51"/></g><g class="cls-3"><path class="cls-4" d="M9.92,48l2.5-3.08a21.68,21.68,0,0,1-1.88-1.7l-.61.6c.4.4.8.78,1.22,1.15l-2,2.34"/></g><g class="cls-3"><path class="cls-5" d="M9.92,48l2.5-3.08a21.68,21.68,0,0,1-1.88-1.7l-.61.6c.4.4.8.78,1.22,1.15l-2,2.34"/></g><g class="cls-3"><path class="cls-4" d="M3.56,40.62l4-1c.2.31.4.61.61.9L5.83,43.9l-.65-.83,1.91-2.46h0l-3,.88"/></g><g class="cls-3"><path class="cls-5" d="M3.56,40.62l4-1c.2.31.4.61.61.9L5.83,43.9l-.65-.83,1.91-2.46h0l-3,.88"/></g><g class="cls-3"><path class="cls-4" d="M5,36.46a3.15,3.15,0,0,0-.16-.89c-.11-.29-.28-.58-.62-.45s-.2.56-.17,1A1.07,1.07,0,0,1,3.3,37.4c-.77.29-1.43-.35-1.69-1a3.47,3.47,0,0,1-.2-1.24l.76,0a3.1,3.1,0,0,0,.14.81c.17.45.4.56.63.47s.23-.21.16-.66c-.14-1,.13-1.39.64-1.58.89-.34,1.5.24,1.8,1a3.81,3.81,0,0,1,.23,1.2Z"/></g><g class="cls-3"><path class="cls-5" d="M5,36.46a3.15,3.15,0,0,0-.16-.89c-.11-.29-.28-.58-.62-.45s-.2.56-.17,1A1.07,1.07,0,0,1,3.3,37.4c-.77.29-1.43-.35-1.69-1a3.47,3.47,0,0,1-.2-1.24l.76,0a3.1,3.1,0,0,0,.14.81c.17.45.4.56.63.47s.23-.21.16-.66c-.14-1,.13-1.39.64-1.58.89-.34,1.5.24,1.8,1a3.81,3.81,0,0,1,.23,1.2Z"/></g><g class="cls-3"><path class="cls-4" d="M-.09,28.65l1-.06c0,.32,0,.65.08,1l3-.29c0,.29.07.61.11.91l-2.95.42c0,.31.09.63.15.95l-1,.18"/></g><g class="cls-3"><path class="cls-5" d="M-.09,28.65l1-.06c0,.32,0,.65.08,1l3-.29c0,.29.07.61.11.91l-2.95.42c0,.31.09.63.15.95l-1,.18"/></g><g class="cls-3"><path class="cls-4" d="M4.28,22.41a9.93,9.93,0,0,0-.19,1s-.62.16-.9.27-.67.33-.72.59c0,.06,0,.12,0,.15l1.5.15c0,.3-.06.61-.08.91L0,25.31c0-.55.09-1.09.15-1.63.09-.77.47-1.4,1.17-1.35a1,1,0,0,1,1,1h0A1.7,1.7,0,0,1,2.85,23a12.43,12.43,0,0,1,1.43-.58"/></g><g class="cls-3"><path class="cls-5" d="M4.28,22.41a9.93,9.93,0,0,0-.19,1s-.62.16-.9.27-.67.33-.72.59c0,.06,0,.12,0,.15l1.5.15c0,.3-.06.61-.08.91L0,25.31c0-.55.09-1.09.15-1.63.09-.77.47-1.4,1.17-1.35a1,1,0,0,1,1,1h0A1.7,1.7,0,0,1,2.85,23,12.43,12.43,0,0,1,4.28,22.41Z"/></g><g class="cls-3"><path class="cls-4" d="M1.81,16.79l4.31.12c-.16.32-.3.64-.44,1l-.91,0q-.25.61-.48,1.26l.71.57c-.11.33-.21.65-.3,1L1.44,17.78"/></g><g class="cls-3"><path class="cls-5" d="M1.81,16.79l4.31.12c-.16.32-.3.64-.44,1l-.91,0q-.25.61-.48,1.26l.71.57c-.11.33-.21.65-.3,1L1.44,17.78"/></g><g class="cls-3"><path class="cls-4" d="M8.44,7.14l2.91,1L9.67,6.06l.8-.63,2.37,3.19-.8.65L9.23,8.34,11,10.2c-.21.19-.4.38-.6.58L7.56,8"/></g><g class="cls-3"><path class="cls-5" d="M8.44,7.14l2.91,1L9.67,6.06l.8-.63,2.37,3.19-.8.65L9.23,8.34,11,10.2c-.21.19-.4.38-.6.58L7.56,8"/></g><g class="cls-3"><path class="cls-4" d="M14.36,3a2,2,0,0,1,2.79.84,2,2,0,0,1-.89,2.77,2,2,0,0,1-2.79-.84A2,2,0,0,1,14.36,3m1.52,2.9a1.06,1.06,0,0,0,.36-1.58c-.4-.75-1-.88-1.51-.61a1.06,1.06,0,0,0-.34,1.58c.39.75,1,.88,1.49.61"/></g><g class="cls-3"><path class="cls-5" d="M14.36,3a2,2,0,0,1,2.79.84,2,2,0,0,1-.89,2.77,2,2,0,0,1-2.79-.84A2,2,0,0,1,14.36,3Zm1.52,2.9a1.06,1.06,0,0,0,.36-1.58c-.4-.75-1-.88-1.51-.61a1.06,1.06,0,0,0-.34,1.58C14.78,6,15.37,6.16,15.88,5.89Z"/></g><g class="cls-3"><path class="cls-4" d="M20.13,4a3.13,3.13,0,0,0,.91,0c.3-.07.61-.21.52-.57s-.53-.27-1-.29a1.07,1.07,0,0,1-1.16-.86c-.2-.81.52-1.38,1.23-1.56A3.51,3.51,0,0,1,21.88.6l-.1.76a2.77,2.77,0,0,0-.83,0c-.46.12-.6.33-.54.57s.18.25.64.24c1,0,1.36.29,1.49.82.23.92-.42,1.46-1.25,1.67a3.84,3.84,0,0,1-1.22.07Z"/></g><g class="cls-3"><path class="cls-5" d="M20.13,4a3.13,3.13,0,0,0,.91,0c.3-.07.61-.21.52-.57s-.53-.27-1-.29a1.07,1.07,0,0,1-1.16-.86c-.2-.81.52-1.38,1.23-1.56A3.51,3.51,0,0,1,21.88.6l-.1.76a2.77,2.77,0,0,0-.83,0c-.46.12-.6.33-.54.57s.18.25.64.24c1,0,1.36.29,1.49.82.23.92-.42,1.46-1.25,1.67a3.84,3.84,0,0,1-1.22.07Z"/></g><g class="cls-6"><polyline points="24.08 -0.08 26.93 16.16 29.79 -0.08"/></g><g class="cls-6"><polyline points="30.63 0.02 29.51 16.47 36.17 1.39"/></g><g class="cls-6"><polyline points="36.96 1.69 31.94 17.4 42.02 4.34"/></g><g class="cls-6"><polyline points="42.71 4.82 34.08 18.87 46.98 8.61"/></g><g class="cls-6"><polyline points="47.54 9.24 35.8 20.81 50.79 13.94"/></g><g class="cls-6"><polyline points="51.17 14.69 37.01 23.11 53.2 20.03"/></g><g class="cls-6"><polyline points="53.41 20.84 37.63 25.64 54.09 26.51"/></g><g class="cls-6"><polyline points="54.09 27.35 37.63 28.23 53.41 33.03"/></g><g class="cls-6"><polyline points="53.2 33.84 37.01 30.75 51.18 39.18"/></g><g class="cls-6"><polyline points="50.79 39.93 35.8 33.05 47.54 44.63"/></g><g class="cls-6"><polyline points="46.98 45.26 34.08 35 42.71 49.05"/></g><g class="cls-6"><polyline points="42.02 49.53 31.94 36.48 36.96 52.18"/></g><g class="cls-6"><polyline points="29.79 53.94 26.93 37.71 24.08 53.94"/></g><g class="cls-6"><polyline points="23.24 53.84 24.36 37.4 17.7 52.48"/></g><g class="cls-6"><polyline points="16.91 52.18 21.93 36.48 11.85 49.53"/></g><g class="cls-6"><polyline points="11.16 49.05 19.79 35 6.88 45.26"/></g><g class="cls-6"><polyline points="6.33 44.63 18.07 33.05 3.08 39.93"/></g><g class="cls-6"><polyline points="2.69 39.18 16.86 30.75 0.67 33.84"/></g><g class="cls-6"><polyline points="0.46 33.03 16.24 28.23 -0.23 27.35"/></g><g class="cls-6"><polyline points="-0.22 26.51 16.24 25.64 0.47 20.84"/></g><g class="cls-6"><polyline points="0.67 20.03 16.86 23.11 2.69 14.69"/></g><g class="cls-6"><polyline points="3.08 13.94 18.07 20.82 6.33 9.24"/></g><g class="cls-6"><polyline points="6.88 8.61 19.79 18.87 11.16 4.82"/></g><g class="cls-6"><polyline points="11.85 4.34 21.93 17.39 16.91 1.69"/></g><g class="cls-6"><polyline points="17.7 1.39 24.36 16.47 23.24 0.02"/></g><g class="cls-6"><path class="cls-4" d="M44,5.87,41.46,9a20.17,20.17,0,0,1,1.88,1.7L44,10c-.39-.39-.8-.77-1.22-1.14l2-2.35"/></g><g class="cls-6"><path class="cls-4" d="M52.45,17.83,48.7,19.16c-.1-.28-.22-.57-.33-.85l3.7-1.48"/></g><g class="cls-6"><path class="cls-4" d="M53.93,24.7l-3.07-.62h0l2.84-1.29-.18-1-3.71,1.93c0,.37.09.72.13,1.08l4.05,1"/></g><g class="cls-6"><path class="cls-4" d="M51.67,38l-.92-.41c.13-.3.26-.6.38-.91l-2.76-1.11q.18-.44.33-.87l2.8,1c.11-.3.22-.61.31-.92l.95.3"/></g><g class="cls-6"><path class="cls-4" d="M48.91,42.77l-3.23-2.34c.18-.24.36-.51.52-.76l3.32,2.21"/></g><g class="cls-6"><path class="cls-4" d="M43.69,48.21l-.62-.78c.26-.2.51-.41.76-.63l-1.92-2.27c.23-.19.46-.41.69-.61l2,2.2.7-.67.7.71"/></g><g class="cls-6"><path class="cls-4" d="M39,51.17,37.26,47.6c.27-.14.55-.28.81-.43L40,50.67"/></g><g class="cls-6"><polyline points="36.17 52.48 29.51 37.4 30.63 53.84"/></g><g class="cls-7"><path class="cls-4" d="M34.63,52.91l.79-2.51-.6-1.34-.21.77c-.4.14-.82.27-1.23.39l-.29-1a23.44,23.44,0,0,1-2.32.51l.14.85c.48-.08,1-.18,1.49-.3l.17.66c-.5.12-.95.21-1.39.28l.13.76c.46-.08.92-.17,1.44-.29l.16.65c-.58.13-1.09.24-1.61.32l.16,1m2.48-1.33L33.57,51c.27-.07.57-.16.84-.25L34,52.3Z"/></g><g class="cls-6"><path class="cls-4" d="M20,53.11l1-3.85c.3.08.61.15.9.21L21,53.37"/></g><g class="cls-6"><path class="cls-4" d="M15.45,51.47l1.7-3.6a22.72,22.72,0,0,1-2.23-1.2l-.45.73c.48.29,1,.56,1.46.82L14.49,51"/></g><g class="cls-6"><path class="cls-4" d="M9.92,48l2.5-3.08a21.68,21.68,0,0,1-1.88-1.7l-.61.6c.4.4.8.78,1.22,1.15l-2,2.34"/></g><g class="cls-6"><path class="cls-4" d="M3.56,40.62l4-1c.2.31.4.61.61.9L5.83,43.9l-.65-.83,1.91-2.46h0l-3,.88"/></g><g class="cls-6"><path class="cls-4" d="M-.09,28.65l1-.06c0,.32,0,.65.08,1l3-.29c0,.29.07.61.11.91l-2.95.42c0,.31.09.63.15.95l-1,.18"/></g><g class="cls-6"><path class="cls-4" d="M0,23.67H.19c.1-.77.47-1.4,1.17-1.35a1,1,0,0,1,1,1h0A1.65,1.65,0,0,1,2.85,23a14.67,14.67,0,0,1,1.43-.58,9.93,9.93,0,0,0-.19,1s-.61.16-.9.27-.67.33-.72.59c0,.06,0,.12,0,.15l1.5.15c0,.3-.06.61-.08.91l-4-.23m1-1.42c0,.14,0,.29,0,.45l1,.09c0-.13,0-.29.05-.43s0-.6-.41-.64-.51.13-.55.53"/></g><g class="cls-6"><path class="cls-4" d="M1.81,16.79l4.3.12c-.15.32-.3.64-.44,1l-.9,0q-.25.61-.48,1.26l.71.57c-.11.33-.21.65-.3,1L1.44,17.78m1-.14,1.24,1L4,17.76l-1.56-.13Z"/></g><g class="cls-6"><path class="cls-4" d="M8.44,7.14l2.91,1L9.67,6.06l.8-.63,2.37,3.19-.8.65L9.23,8.34,11,10.2c-.21.19-.4.38-.6.58L7.56,8"/></g><g class="cls-6"><path class="cls-4" d="M31.58,3.45a3.51,3.51,0,0,0,.83.38c.3.07.64.09.72-.26s-.35-.49-.75-.73a1.06,1.06,0,0,1-.62-1.3,1.39,1.39,0,0,1,1.81-.8,3.35,3.35,0,0,1,1.13.53l-.44.63a2.63,2.63,0,0,0-.75-.35c-.47-.12-.69,0-.74.25s0,.3.45.5c.9.45,1.07.9.94,1.43-.23.92-1,1.09-1.89.89a3.58,3.58,0,0,1-1.11-.5Z"/></g><g class="cls-6"><path class="cls-4" d="M39.51,3a2,2,0,0,1,.89,2.77,2,2,0,0,1-2.79.84,2,2,0,0,1-.9-2.77A2,2,0,0,1,39.51,3M38,5.89a1.06,1.06,0,0,0,1.5-.61,1.06,1.06,0,1,0-1.85-1A1.06,1.06,0,0,0,38,5.89"/></g><g class="cls-6"><path class="cls-4" d="M50.8,28.72a4,4,0,0,0-.27.87c0,.31,0,.64.35.69s.44-.4.62-.84a1.08,1.08,0,0,1,1.22-.77c.82.1,1.11,1,1,1.7a3.55,3.55,0,0,1-.39,1.19l-.68-.37a3,3,0,0,0,.26-.79c0-.47-.1-.67-.34-.7s-.3.08-.45.51c-.34.95-.76,1.17-1.3,1.11-.94-.12-1.21-.92-1.11-1.77a3.64,3.64,0,0,1,.36-1.16Z"/></g><g class="cls-6"><path class="cls-4" d="M5,36.46a3.15,3.15,0,0,0-.16-.89c-.11-.29-.28-.58-.62-.45s-.2.56-.17,1A1.07,1.07,0,0,1,3.3,37.4c-.77.29-1.43-.35-1.69-1a3.47,3.47,0,0,1-.2-1.24l.76,0a3.1,3.1,0,0,0,.14.81c.17.45.4.56.63.47s.23-.21.16-.66c-.14-1,.13-1.39.64-1.58.89-.34,1.5.24,1.8,1a3.81,3.81,0,0,1,.23,1.2Z"/></g><g class="cls-6"><path class="cls-4" d="M14.36,3a2,2,0,0,1,2.79.84,2,2,0,0,1-.89,2.77,2,2,0,0,1-2.79-.84A2,2,0,0,1,14.36,3m1.52,2.9a1.06,1.06,0,0,0,.36-1.58c-.4-.75-1-.88-1.51-.61a1.06,1.06,0,0,0-.34,1.58c.39.75,1,.88,1.49.61"/></g><g class="cls-6"><path class="cls-4" d="M20.13,4a3.13,3.13,0,0,0,.91,0c.3-.07.61-.21.52-.57s-.53-.27-1-.29a1.07,1.07,0,0,1-1.16-.86c-.2-.81.52-1.38,1.23-1.56A3.51,3.51,0,0,1,21.88.6l-.1.76a2.77,2.77,0,0,0-.83,0c-.46.12-.6.33-.54.57s.18.25.64.24c1,0,1.36.29,1.49.82.23.92-.42,1.46-1.25,1.67a3.84,3.84,0,0,1-1.22.07Z"/></g><g class="cls-6"><path class="cls-4" d="M26.93,2.93a1,1,0,1,0-1-1,1,1,0,0,0,1,1"/></g><g class="cls-6"><path class="cls-4" d="M46.69,13.3a1,1,0,0,0,1.36.25,1,1,0,0,0,.24-1.35A1,1,0,0,0,46.94,12a1,1,0,0,0-.25,1.35"/></g><g class="cls-6"><path class="cls-4" d="M26.93,50.94a1,1,0,1,1-1,1,1,1,0,0,1,1-1"/></g><g class="cls-6"><path class="cls-4" d="M7.17,13.3a1,1,0,1,0-1.6-1.1,1,1,0,0,0,.25,1.35,1,1,0,0,0,1.35-.25"/></g><path class="cls-8" d="M30.63,30.62a1.65,1.65,0,0,1-1.19.51h-1a1.68,1.68,0,0,0-1.34.67h-.36a1.65,1.65,0,0,0-1.34-.67h-1a1.66,1.66,0,0,1-1.66-1.67v-6.7"/><path class="cls-4" d="M22.77,22.76H31.1v6.7a1.65,1.65,0,0,1-.47,1.16"/><path d="M31.54,29.44a2.1,2.1,0,0,1-2.1,2.1h-1a1.24,1.24,0,0,0-1.14.76h-.75a1.24,1.24,0,0,0-1.15-.76h-1a2.1,2.1,0,0,1-2.1-2.1V22.33h9.21Zm-.86-6.25H23.19v6.25a1.25,1.25,0,0,0,1.24,1.24h1a2.07,2.07,0,0,1,1.51.65h0a2.07,2.07,0,0,1,1.51-.65h1a1.25,1.25,0,0,0,1.24-1.24Z"/><path d="M138.2,20.61h4.92v.74H143c-1.52,0-1.75.67-1.75,1.58v4.73c0,4.24-3.07,5-5.34,5-3.41,0-5.58-1.48-5.58-4.39V22.65c0-.95-.27-1.3-1.33-1.3h-.32v-.74h5.94v.74h-.32a1.18,1.18,0,0,0-1.35,1.3v5.66c0,2.31,1.71,3.11,3.44,3.11,2.49,0,3.73-1.4,3.73-3.49V23.31c0-1.35-.38-2-1.56-2h-.35v-.74Z"/><path d="M152.62,30.7c0,.93.35,1.12,1.09,1.12v.61h-4.48v-.61c.77-.06,1.08-.59,1.08-2.14V28c0-1.52-.42-2.1-1.18-2.1a3.67,3.67,0,0,0-2,.83v3.86c0,.85.36,1.21,1.12,1.21h.17v.61H143.6v-.61h.11c.8,0,1.09-.34,1.09-1.33v-3.7c0-.42-.23-.67-.9-.86l-.39-.11v-.46l3.24-1.1h.36V26a7.39,7.39,0,0,1,3.52-1.48c1.39,0,2,1,2,3.27v3Z"/><path d="M159.14,32.43H154.4v-.61h.2c.78,0,1.07-.34,1.07-1.33V26.84c0-.49-.12-.62-.65-.81l-.63-.23v-.46l3.25-1.08H158v6.37c0,.77.33,1.19,1.16,1.19v.61Zm-.89-11.19a1.4,1.4,0,0,1-1.5,1.29,1.38,1.38,0,0,1-1.52-1.29A1.47,1.47,0,0,1,156.75,20a1.38,1.38,0,0,1,1.5,1.29"/><path d="M159.35,24.68h4.83v.61h-.67c-.39,0-.57.36-.24,1.06L165,30.13l1.48-3.34c.44-1,.21-1.37-1.12-1.5v-.61h3.78v.61a1.54,1.54,0,0,0-1.6,1.14l-2.72,6.13h-1.13l-2.83-6.1c-.37-.77-.63-1.08-1.47-1.17v-.61Z"/><path d="M176.76,30.23a5.27,5.27,0,0,1-4.07,2.41c-2.07,0-3.48-1.6-3.48-3.9a4,4,0,0,1,4.07-4.27,3.23,3.23,0,0,1,2.39.91c1.12,1.12.59,2.19,1.26,2.53v.55h-5.27c.16,1.57,1.22,2.77,2.34,2.77.7,0,1.39-.4,2.32-1.37Zm-2.46-2.51c0-1.46-.53-2.36-1.34-2.36s-1.48,1-1.35,2.36Z"/><path d="M183.22,32.43h-5.28v-.61h.13c.78,0,1.06-.34,1.06-1.33V27.4c0-.86-.11-1-.68-1.28l-.51-.21v-.47l3.11-1.18h.4v2.13h0c.7-1.37,1-1.92,1.65-1.92a1.12,1.12,0,0,1,.38.06l1.5.55a6.56,6.56,0,0,1-.91,2,6.94,6.94,0,0,0-1.54-.47c-.38,0-.7.26-1.12.85v3.08c0,.91.28,1.27,1.27,1.27h.49v.61Z"/><path d="M186.22,30.19h.61a2.13,2.13,0,0,0,2,1.63,1,1,0,0,0,1-.87c0-1.31-3.57-1.77-3.57-4.07,0-1.44,1.2-2.41,3-2.41a5.83,5.83,0,0,1,2.13.4l0,2h-.61c-.34-1-1-1.61-1.79-1.61a.79.79,0,0,0-.87.72c0,1.56,3.74,1.61,3.74,4.22a2.33,2.33,0,0,1-2.47,2.39,8.39,8.39,0,0,1-2-.27c-.12,0-.23.08-.38.25h-.55Z"/><path d="M197.58,32.43h-4.75v-.61H193c.78,0,1.06-.34,1.06-1.33V26.84c0-.49-.11-.62-.64-.81l-.63-.23v-.46l3.25-1.08h.34v6.37c0,.77.32,1.19,1.16,1.19Zm-.89-11.19a1.41,1.41,0,0,1-1.5,1.29,1.38,1.38,0,0,1-1.52-1.29A1.47,1.47,0,0,1,195.19,20a1.38,1.38,0,0,1,1.5,1.29"/><path d="M201.87,30.32c0,.7.33,1,.88,1s.89-.29,1.44-.95l.27.53a3.35,3.35,0,0,1-2.76,1.73c-1.29,0-2.14-.72-2.14-2.36V25.72h-1v-.49a5.64,5.64,0,0,0,2.77-2.93h.55v2.38h2.49l-.28,1h-2.21v4.6Z"/><path d="M207.4,27c-.66-1.37-1-1.73-1.8-1.73v-.61h4.84v.61c-1,0-1.14.38-.78,1.14l1.58,3.26,1.45-2.92c.39-.82.15-1.46-1-1.48v-.61h3.53v.61c-.85.19-1.1.42-1.63,1.5l-4.26,8.66c-.47.95-1.06,1.41-1.73,1.41a1.12,1.12,0,0,1-1.2-1.09,1.19,1.19,0,0,1,.29-.79c.87-.88,1.88.3,2.89-1.9l.38-.84Z"/></svg>