<svg id="Layer_1" data-name="Layer 1" xmlns="http://www.w3.org/2000/svg" xmlns:xlink="http://www.w3.org/1999/xlink" viewBox="0 0 253 67"><defs><style>.cls-1{fill:none;}.cls-2{fill:#ffd400;}.cls-3{clip-path:url(#clip-path);}.cls-4{fill:#1d1d1b;}.cls-5{fill:#fff;}.cls-6{fill:#e3032e;}</style><clipPath id="clip-path"><path class="cls-1" d="M31.72,65.3A31.66,31.66,0,1,0,.06,33.64,31.67,31.67,0,0,0,31.72,65.3Z"/></clipPath></defs><title>uu-logo</title><rect class="cls-1" x="-52.34" y="-43" width="379.85" height="149.94"/><circle class="cls-1" cx="31.72" cy="33.64" r="47.49" transform="translate(-5.35 6.01) rotate(-9.99)"/><polygon class="cls-2" points="26.79 3.04 27.39 2.28 28.41 2.15 29.18 2.75 34.25 2.75 35.02 2.15 36.04 2.28 36.64 3.04 41.57 4.26 42.46 3.86 43.42 4.22 43.82 5.11 48.31 7.47 49.28 7.29 50.12 7.87 50.29 8.84 54.1 12.2 55.07 12.27 55.75 13.03 55.69 14.01 58.57 18.18 59.51 18.47 59.98 19.38 59.69 20.31 61.49 25.06 62.33 25.57 62.57 26.56 62.07 27.39 62.68 32.44 63.37 33.13 63.37 34.15 62.68 34.84 62.07 39.88 62.58 40.72 62.33 41.71 61.49 42.22 59.69 46.97 59.98 47.9 59.51 48.81 58.58 49.09 55.69 53.27 55.75 54.25 55.07 55.02 54.1 55.07 50.3 58.44 50.12 59.4 49.28 59.98 48.32 59.8 43.82 62.16 43.42 63.06 42.46 63.42 41.57 63.02 36.65 64.24 36.04 65 35.03 65.13 34.26 64.52 29.18 64.52 28.41 65.13 27.39 65 26.79 64.24 21.86 63.02 20.97 63.42 20.01 63.06 19.61 62.16 15.12 59.81 14.16 59.99 13.31 59.4 13.14 58.44 9.34 55.07 8.36 55.02 7.68 54.25 7.74 53.27 4.86 49.1 3.93 48.81 3.45 47.9 3.74 46.97 1.94 42.22 1.1 41.72 0.86 40.72 1.36 39.89 0.75 34.84 0.06 34.15 0.06 33.13 0.75 32.44 1.36 27.4 0.86 26.56 1.1 25.57 1.94 25.07 3.74 20.32 3.45 19.38 3.92 18.48 4.86 18.18 7.74 14.01 7.68 13.03 8.36 12.27 9.34 12.2 13.13 8.84 13.31 7.88 14.15 7.3 15.11 7.47 19.61 5.11 20.01 4.22 20.97 3.86 21.86 4.26 26.79 3.04"/><g class="cls-3"><path class="cls-4" d="M35.07,1.89,31.72,21,28.36,1.89m7.7.12L34.75,21.34,42.58,3.62M43.5,4,37.6,22.43,49.44,7.09m.82.56L40.12,24.16,55.28,12.1m.66.74L42.14,26.45l17.61-8.08m.46.87L43.56,29.15l19-3.63m.24,1L44.29,32.12l19.35,1m0,1-19.35,1L62.83,40.8m-.24,1-19-3.63L60.21,48m-.46.88L42.14,40.83l13.8,13.61m-.66.74L40.12,43.12,50.26,59.63m-.82.57L37.6,44.85l5.9,18.47m-8.43,2.07L31.72,46.3,28.36,65.39m-1-.12,1.31-19.33L20.86,63.66m-.92-.34,5.89-18.47L14,60.2m-.82-.57L23.32,43.12,8.15,55.18m-.65-.74L21.3,40.83,3.68,48.92M3.22,48l16.65-9.91-19,3.63m-.24-1,18.54-5.63-19.35-1m0-1,19.35-1L.6,26.48m.24-1,19,3.63L3.22,19.24m.46-.87L21.3,26.45,7.5,12.84m.65-.74L23.32,24.16,13.17,7.65M14,7.09,25.83,22.43,19.94,4m.92-.34,7.83,17.72L27.38,2m15.2,61.65L34.75,45.94l1.31,19.33"/><path class="cls-5" d="M52.68,9.69l-2.39,2.75c.49.44,1,.88,1.43,1.35L51,14.5a24.62,24.62,0,0,0-2.21-2l3-3.61m9.52,12.87L56.91,23.5c.13.33.27.68.39,1l4.4-1.57M63.45,31l-3.61-.73h0l3.33-1.52L63,27.54l-4.35,2.27c.06.42.1.84.15,1.27l4.76,1.12m-1.44,11L61,42.86c-.11.36-.24.73-.36,1.08l-3.3-1.18c-.12.33-.25.68-.38,1l3.24,1.31c-.14.36-.29.73-.45,1.07l1.08.48m-2.52,4.58-3.9-2.59c-.2.29-.41.6-.62.89l3.79,2.74m-3.4,4-.82-.84c-.27.27-.54.53-.83.79l-2.37-2.58c-.26.24-.53.49-.8.72L51.58,57l-.9.73.73.92m-4.35,2.89-2.25-4.11-1,.5,2.09,4.2M37,65l-.19-1.16c.61-.1,1.22-.22,1.9-.38l-.19-.76c-.61.14-1.15.25-1.69.34l-.15-.89c.52-.09,1-.2,1.62-.33l-.19-.78c-.63.14-1.19.25-1.75.35l-.16-1A26,26,0,0,0,39,59.82L39.29,61c.49-.14,1-.29,1.45-.45l.24-.92.71,1.59-.93,2.94M40,63.46l.5-1.87-1,.3L40,63.47ZM24.74,64.71l1-4.57-1.06-.26L23.51,64.4m-5.29-1.92,2-4.23a26.58,26.58,0,0,1-2.63-1.41l-.52.86q.84.51,1.71,1l-1.69,3.27M11.71,58.4l2.95-3.62a26.19,26.19,0,0,1-2.22-2l-.71.71c.46.47.94.92,1.43,1.35l-2.4,2.75m-5.9-6.85,3.52-1h0L6.14,52.6l.76,1,2.8-4c-.25-.34-.49-.7-.72-1L4.24,49.72M.38,39.29l1.16-.21c-.07-.37-.13-.75-.18-1.12l3.47-.49c0-.35-.1-.73-.14-1.08l-3.48.35c0-.38-.07-.77-.1-1.16L0,35.66m-.06-3.95L4.61,32c0-.36,0-.72.09-1.07l-1.76-.18s0-.11,0-.17c.06-.31.44-.55.85-.7s1.05-.32,1.05-.32c.06-.41.12-.8.22-1.22A14.41,14.41,0,0,0,3.41,29a1.78,1.78,0,0,0-.62.45h0a1.15,1.15,0,0,0-1.12-1.22c-.82-.06-1.26.68-1.37,1.58H.08m1.64-.39c.45.05.51.48.48.76s0,.35-.06.51L1,30.56c0-.18,0-.35,0-.52C1.12,29.57,1.35,29.37,1.72,29.41Zm0-6.53,3.83,3.38c.11-.39.22-.77.35-1.16l-.83-.67c.17-.5.36-1,.56-1.48l1.07,0c.16-.38.33-.76.52-1.13l-5.06-.14m.72,1,1.84.16c-.13.33-.26.65-.37,1L2.91,22.72ZM9,11.39l3.34,3.27c.23-.24.46-.47.7-.7l-2.08-2.17,3.3,1.09c.3-.26.62-.52.93-.76L12.36,8.37l-.93.73,2,2.42L10,10.38m26.7-3.55A4.52,4.52,0,0,0,38,7.41c1,.24,1.95,0,2.22-1,.15-.62,0-1.14-1.11-1.67-.48-.24-.57-.42-.53-.6s.32-.43.87-.29a3.28,3.28,0,0,1,.88.41l.53-.73a3.88,3.88,0,0,0-1.33-.63,1.63,1.63,0,0,0-2.13.95,1.25,1.25,0,0,0,.73,1.52c.47.28,1,.45.88.85s-.49.39-.85.31a4.29,4.29,0,0,1-1-.44Zm6.53-.35a2.31,2.31,0,0,0,1,3.26,2.31,2.31,0,0,0,3.28-1,2.31,2.31,0,0,0-1-3.26A2.31,2.31,0,0,0,43.21,6.48ZM44.29,7a1.25,1.25,0,1,1,2.17,1.15,1.24,1.24,0,0,1-1.76.71C44.1,8.59,43.83,7.93,44.29,7ZM58.93,35.35a4.36,4.36,0,0,0-.42,1.37c-.12,1,.2,1.94,1.31,2.07.63.08,1.13-.18,1.53-1.3.17-.51.34-.62.52-.59s.47.26.4.82a3.57,3.57,0,0,1-.3.93l.79.43a3.79,3.79,0,0,0,.46-1.4c.11-.85-.22-1.88-1.19-2a1.24,1.24,0,0,0-1.43.9c-.22.51-.32,1-.74,1s-.45-.44-.4-.81a3.61,3.61,0,0,1,.31-1ZM6.84,44.8a4.52,4.52,0,0,0-.27-1.41c-.36-.94-1.08-1.63-2.12-1.23-.6.23-.92.69-.75,1.87.08.53,0,.71-.19.77s-.53,0-.73-.54a3.43,3.43,0,0,1-.17-1h-.9A4,4,0,0,0,2,44.73c.3.8,1.08,1.56,2,1.21a1.24,1.24,0,0,0,.84-1.46c0-.55-.19-1.07.2-1.22s.6.19.73.53a3.58,3.58,0,0,1,.19,1.05Zm9.05-36a2.31,2.31,0,0,0,3.28,1,2.32,2.32,0,0,0,1-3.26,2.32,2.32,0,0,0-3.28-1A2.31,2.31,0,0,0,15.89,8.76ZM17,8.19a1.25,1.25,0,1,1,2.18-1.14A1.25,1.25,0,1,1,17,8.19Zm6.69-.6a4.58,4.58,0,0,0,1.43-.09c1-.24,1.75-.87,1.48-2-.16-.62-.57-1-1.76-1-.54,0-.71-.1-.75-.28s.09-.53.63-.66a3.42,3.42,0,0,1,1,0l.12-.89a4,4,0,0,0-1.47.06c-.83.21-1.68.88-1.44,1.83a1.25,1.25,0,0,0,1.35,1c.55,0,1.08-.06,1.18.34s-.26.58-.61.67a3.9,3.9,0,0,1-1.07.06Zm8.07-2.17a1.15,1.15,0,1,0-1.15-1.14A1.14,1.14,0,0,0,31.72,5.42Zm23.22,12.2a1.15,1.15,0,1,0,.3-1.59A1.14,1.14,0,0,0,54.94,17.62ZM30.57,63a1.15,1.15,0,1,0,1.15-1.14A1.14,1.14,0,0,0,30.57,63ZM8.49,17.62a1.14,1.14,0,1,0-1.59.29A1.14,1.14,0,0,0,8.49,17.62Z"/></g><path class="cls-6" d="M36.06,38a2,2,0,0,1-1.4.59H33.5a2,2,0,0,0-1.57.79H31.5a2,2,0,0,0-1.57-.79H28.78a2,2,0,0,1-2-2V28.74"/><path class="cls-5" d="M26.82,28.74h9.8v7.87A1.92,1.92,0,0,1,36.06,38"/><path class="cls-4" d="M37.13,36.58a2.47,2.47,0,0,1-2.47,2.47H33.5a1.46,1.46,0,0,0-1.34.89h-.89a1.46,1.46,0,0,0-1.34-.89H28.78a2.46,2.46,0,0,1-2.47-2.47V28.23H37.13Zm-1-7.34h-8.8v7.34A1.46,1.46,0,0,0,28.78,38h1.15a2.43,2.43,0,0,1,1.77.76h0A2.43,2.43,0,0,1,33.5,38h1.16a1.47,1.47,0,0,0,1.46-1.46Z"/><path class="cls-5" d="M162.51,26.21h5.78v.87h-.15c-1.79,0-2.06.78-2.06,1.86V34.5c0,5-3.62,5.91-6.27,5.91-4,0-6.57-1.74-6.57-5.15V28.6c0-1.12-.31-1.52-1.56-1.52h-.38v-.87h7v.87h-.38a1.39,1.39,0,0,0-1.59,1.52v6.66c0,2.72,2,3.66,4.05,3.66,2.92,0,4.37-1.66,4.37-4.11V29.38c0-1.58-.44-2.3-1.83-2.3h-.4Zm17,11.86c0,1.09.4,1.32,1.27,1.32v.71h-5.27v-.71c.92-.07,1.28-.7,1.28-2.53V34.92c0-1.79-.49-2.48-1.39-2.48a4.38,4.38,0,0,0-2.36,1V38c0,1,.42,1.43,1.31,1.43h.2v.71h-5.65v-.71H169c.94,0,1.27-.41,1.27-1.57V33.47c0-.49-.27-.78-1-1l-.47-.13v-.54l3.82-1.29H173v2a8.55,8.55,0,0,1,4.13-1.75c1.63,0,2.34,1.17,2.34,3.85Zm7.66,2h-5.58v-.71h.25c.91,0,1.25-.41,1.25-1.57V33.54c0-.58-.14-.74-.76-1l-.74-.27v-.54l3.82-1.27h.4V38c0,.92.38,1.41,1.36,1.41ZM186.07,27a1.66,1.66,0,0,1-1.76,1.52A1.63,1.63,0,0,1,182.52,27a1.73,1.73,0,0,1,1.79-1.52A1.61,1.61,0,0,1,186.07,27Zm1.3,4H193v.71h-.78c-.47,0-.67.43-.29,1.26l2,4.44,1.74-3.93c.51-1.16.24-1.61-1.32-1.77V31h4.44v.71A1.82,1.82,0,0,0,197,33l-3.2,7.22h-1.34l-3.32-7.17c-.43-.92-.74-1.27-1.72-1.39Zm20.45,6.52a6.18,6.18,0,0,1-4.77,2.84c-2.44,0-4.09-1.88-4.09-4.58a4.72,4.72,0,0,1,4.78-5,3.79,3.79,0,0,1,2.81,1.08c1.32,1.31.69,2.56,1.47,3v.64h-6.18c.18,1.86,1.43,3.26,2.75,3.26.82,0,1.63-.46,2.72-1.6Zm-2.88-2.95c0-1.72-.62-2.77-1.58-2.77s-1.74,1.19-1.59,2.77Zm10.48,5.54h-6.21v-.71h.16c.91,0,1.25-.41,1.25-1.57V34.18c0-1-.14-1.22-.81-1.49l-.6-.25v-.56l3.66-1.38h.47V33h0c.82-1.61,1.18-2.26,1.94-2.26a1.45,1.45,0,0,1,.44.07l1.77.65a8,8,0,0,1-1.07,2.37,8.47,8.47,0,0,0-1.81-.56c-.45,0-.83.31-1.32,1v3.62c0,1.07.34,1.5,1.5,1.5h.58ZM219,37.47h.71A2.5,2.5,0,0,0,222,39.39a1.12,1.12,0,0,0,1.17-1c0-1.54-4.2-2.08-4.2-4.78,0-1.7,1.4-2.84,3.5-2.84a7,7,0,0,1,2.5.47L225,33.6h-.72c-.4-1.23-1.13-1.9-2.09-1.9a.93.93,0,0,0-1,.85c0,1.83,4.4,1.9,4.4,5a2.74,2.74,0,0,1-2.91,2.81,10.09,10.09,0,0,1-2.36-.31c-.14,0-.27.09-.45.29h-.65ZM232.3,40.1h-5.58v-.71H227c.91,0,1.25-.41,1.25-1.57V33.54c0-.58-.14-.74-.76-1l-.74-.27v-.54l3.82-1.27h.4V38c0,.92.38,1.41,1.36,1.41ZM231.25,27a1.66,1.66,0,0,1-1.76,1.52A1.63,1.63,0,0,1,227.7,27a1.73,1.73,0,0,1,1.79-1.52A1.61,1.61,0,0,1,231.25,27Zm6.1,10.67c0,.83.38,1.19,1,1.19s1.05-.34,1.69-1.12l.32.62a3.94,3.94,0,0,1-3.24,2c-1.52,0-2.52-.85-2.52-2.77V32.22h-1.19v-.58a6.69,6.69,0,0,0,3.26-3.44h.65V31h2.93l-.34,1.23h-2.59Zm6.5-3.88c-.78-1.61-1.16-2-2.12-2V31h5.69v.71c-1.16,0-1.34.45-.91,1.34l1.85,3.85,1.7-3.44c.46-1,.17-1.72-1.17-1.75V31h4.16v.71c-1,.23-1.3.5-1.92,1.77l-5,10.18c-.56,1.12-1.25,1.65-2,1.65a1.3,1.3,0,0,1-1.4-1.27,1.41,1.41,0,0,1,.33-.94c1-1,2.21.36,3.4-2.23l.44-1ZM83.27,26.29H89v.86h-.16c-1.77,0-2,.77-2,1.83v5.51c0,4.93-3.58,5.85-6.21,5.85-4,0-6.5-1.72-6.5-5.1V28.65c0-1.11-.31-1.5-1.55-1.5h-.38v-.86h6.92v.86h-.37a1.37,1.37,0,0,0-1.57,1.5v6.59c0,2.7,2,3.62,4,3.62,2.9,0,4.34-1.63,4.34-4.06V29.43c0-1.57-.45-2.28-1.82-2.28h-.4Zm9.24,11.29c0,.82.37,1.17,1,1.17s1-.33,1.67-1.1l.32.62a3.92,3.92,0,0,1-3.21,2c-1.5,0-2.5-.84-2.5-2.74v-5.3H88.64v-.58a6.65,6.65,0,0,0,3.23-3.41h.64V31H95.4l-.33,1.22H92.51ZM102.68,40H96.53v-.71h.16c.9,0,1.23-.4,1.23-1.55v-3.6c0-1-.13-1.22-.79-1.48l-.6-.25V31.9l3.63-1.37h.46V33h0c.81-1.6,1.17-2.24,1.92-2.24a1.45,1.45,0,0,1,.44.07l1.75.64a7.8,7.8,0,0,1-1.06,2.34,8.69,8.69,0,0,0-1.8-.55c-.44,0-.81.31-1.3,1v3.58c0,1.06.33,1.48,1.48,1.48h.58Zm11.71-2.57a6.1,6.1,0,0,1-4.73,2.81c-2.41,0-4-1.86-4-4.53a4.67,4.67,0,0,1,4.73-5,3.75,3.75,0,0,1,2.78,1.07c1.31,1.3.69,2.54,1.46,2.94v.64h-6.12c.18,1.83,1.41,3.22,2.72,3.22.82,0,1.61-.46,2.7-1.59Zm-2.85-2.91c0-1.71-.62-2.74-1.57-2.74s-1.72,1.16-1.57,2.74Zm13.53,3.35a5.14,5.14,0,0,1-4.51,2.37,4.37,4.37,0,0,1-4.64-4.38c0-2.89,2.5-5.13,5.72-5.13,1.9,0,3.34.8,3.34,1.88a1.06,1.06,0,0,1-1.13,1.11c-1.54,0-1.87-2-3.15-2-1.11,0-1.87,1.35-1.87,3.34,0,2.39,1.14,4,2.77,4a3.75,3.75,0,0,0,2.83-1.57Zm4.8-.1c0,1.39.37,1.52,1.15,1.52h.22V40h-5.6v-.71H126c1.12,0,1.21-.44,1.21-1.62V28.05c0-.63-.11-.79-.71-1l-.64-.22v-.51l3.52-1.08h.53v7.2a8.28,8.28,0,0,1,4-1.68c1.62,0,2.42,1.31,2.42,3.92v2.92c0,1.3.15,1.72,1,1.72h.22V40h-5.22v-.71h.18c.93,0,1.13-.36,1.13-1.62V34.38c0-1.19-.56-2-1.44-2a4.63,4.63,0,0,0-2.25.84Zm12.42-.23c0,.82.38,1.17,1,1.17s1-.33,1.68-1.1l.31.62a3.92,3.92,0,0,1-3.21,2c-1.5,0-2.5-.84-2.5-2.74v-5.3h-1.17v-.58a6.61,6.61,0,0,0,3.23-3.41h.64V31h2.89l-.32,1.22h-2.57Z"/></svg>